# xmcd
#
# Track frame offsets:
#	150
#	14200
#	28557
#	45348
#	64803
#	74337
#	86957
#	108424
#	117992
#	130445
#	140498
#	161354
#	180064
#
# Disc length: 2649 seconds
#
# Revision: 0
# Processed by: cddbd v1.5.1PL2 Copyright (c) Steve Scherf et al.
# Submitted via: audiograbber 1.83.01
#
DISCID=b20a570d
DTITLE=Big Tuna - Big Tuna
DYEAR=2005
DGENRE=Blues Rock
TTITLE0=Cannonball
TTITLE1=Darlin
TTITLE2=I Just Want A Little Bit
TTITLE3=Big Town
TTITLE4=30 Days
TTITLE5=Can't Be Satisfied
TTITLE6=Childhood Sweetheart
TTITLE7=Have Your Way Baby
TTITLE8=Shame, Shame, Shame
TTITLE9=Take Me Back
TTITLE10=T-Bone For Daisy
TTITLE11=Who's Been Talkin
TTITLE12=Take Out Some Insurance
EXTD=
EXTT0=
EXTT1=
EXTT2=
EXTT3=
EXTT4=
EXTT5=
EXTT6=
EXTT7=
EXTT8=
EXTT9=
EXTT10=
EXTT11=
EXTT12=
PLAYORDER=
